<svg xmlns="http://www.w3.org/2000/svg" viewBox="0 0 1000 324">
  <path d="M431.5 19.2L373.3 305h-74.8l58.3-285.8h74.7zm298.8 184.7l39.4-108.6 22.7 108.6h-62.1zm83.5 101.1h69.2L821.5 19.2h-63.2c-14.2 0-26.2 8.3-31.5 21L616.5 305h73.2l14.5-40.2h89.4l8.2 40.2zm-185.5-93.2c.3-73.5-101.6-77.6-100.9-110.4.2-10 9.7-20.6 30.5-23.3 10.3-1.3 38.7-2.3 70.9 12.2l12.6-58.9C626.2 25.6 607.6 19.2 585 19.2c-68.9 0-117.4 36.6-117.8 89-.4 38.8 34.6 60.4 61 73.3 27.1 13.2 36.2 21.7 36.1 33.5-.2 18.1-21.6 26.1-41.6 26.4-35 .5-55.3-9.5-71.5-17l-12.6 58.8c16.3 7.4 46.2 13.9 77.3 14.3 73.3 0 121.2-36.2 121.4-92.1zM348.1 19.2L238.4 305h-73.8L108 62.4c-3.5-13.6-6.5-18.6-17-24.3C74.1 29.4 43.2 21.3 16 16.2l1.7-8.3h118.8c15.1 0 28.7 10.1 32.2 27.5l29.4 156.3 72.6-183.8h73.4z" fill="#1a1f71"/>
</svg>
